<svg width="313" height="95" viewBox="0 0 313 95" fill="none" xmlns="http://www.w3.org/2000/svg">
<path d="M89.9855 10H105.296C107.288 10 109.017 10.0938 110.482 10.2812C111.946 10.457 113.194 10.7148 114.226 11.0547C115.257 11.3945 116.095 11.8105 116.739 12.3027C117.396 12.7949 117.905 13.3457 118.269 13.9551C118.644 14.5645 118.896 15.2324 119.025 15.959C119.165 16.6855 119.235 17.459 119.235 18.2793C119.235 19.123 119.153 19.9141 118.989 20.6523C118.837 21.3906 118.55 22.0703 118.128 22.6914C117.706 23.3008 117.12 23.8516 116.37 24.3438C115.632 24.8359 114.677 25.252 113.505 25.5918C112.345 25.9199 110.939 26.1777 109.286 26.3652C107.646 26.541 105.712 26.6289 103.485 26.6289V28.9316L105.735 29.3711V37H89.9855V29.3711L92.2355 28.9316V18.0684L89.9855 17.6289V10ZM103.485 21.7949C104.165 21.7949 104.78 21.7598 105.331 21.6895C105.894 21.6191 106.368 21.4727 106.755 21.25C107.153 21.0156 107.458 20.6816 107.669 20.248C107.88 19.8145 107.985 19.2285 107.985 18.4902C107.985 17.7754 107.88 17.207 107.669 16.7852C107.458 16.3516 107.153 16.0234 106.755 15.8008C106.368 15.5781 105.894 15.4316 105.331 15.3613C104.78 15.291 104.165 15.2559 103.485 15.2559V21.7949Z" fill="#053F5E"/>
<path d="M135.021 30.25C135.583 30.25 136.11 30.1855 136.603 30.0566C137.095 29.916 137.552 29.7402 137.974 29.5293C138.396 29.3184 138.776 29.0781 139.116 28.8086C139.468 28.5391 139.773 28.2695 140.03 28H142.966V37H121.521V29.3711L123.771 28.9316V18.0684L121.521 17.6289V10H137.271V17.6289L135.021 18.0684V30.25Z" fill="#053F5E"/>
<path d="M163.796 37L162.847 32.4648H155.499L154.568 37H144.566V28.1406L146.728 27.7012L151.913 10H166.433L171.636 27.7012L173.798 28.1406V37H163.796ZM157.011 26.4355H161.335L159.173 16.2578L157.011 26.4355Z" fill="#053F5E"/>
<path d="M198.759 10V19H195.806C195.607 18.7422 195.378 18.4785 195.12 18.209C194.862 17.9395 194.575 17.6992 194.259 17.4883C193.943 17.2656 193.597 17.0898 193.222 16.9609C192.847 16.8203 192.443 16.75 192.009 16.75V28.9316L194.259 29.3711V37H178.509V29.3711L180.759 28.9316V16.75C180.325 16.75 179.921 16.8203 179.546 16.9609C179.171 17.0898 178.825 17.2656 178.509 17.4883C178.193 17.6992 177.905 17.9395 177.648 18.209C177.39 18.4785 177.161 18.7422 176.962 19H174.009V10H198.759Z" fill="#053F5E"/>
<path d="M214.685 30.25C215.482 30.25 216.232 30.1855 216.935 30.0566C217.638 29.916 218.282 29.7402 218.868 29.5293C219.466 29.3184 220.005 29.0781 220.485 28.8086C220.966 28.5391 221.388 28.2695 221.751 28H224.687V37H201.185V29.3711L203.435 28.9316V18.1035L201.185 17.6641V10H224.687V19H221.857C221.482 18.7422 221.048 18.4785 220.556 18.209C220.064 17.9395 219.513 17.6992 218.903 17.4883C218.306 17.2656 217.655 17.0898 216.952 16.9609C216.249 16.8203 215.493 16.75 214.685 16.75V21.5488L219.958 20.4062V26.6289L214.685 25.4863V30.25Z" fill="#053F5E"/>
<path d="M103.573 74.834V88H90.0909V80.3711L92.3409 79.9316V69.0684L90.0909 68.6289V61H103.573L109.234 71.3711L114.841 61H128.341V68.6289L126.091 69.0684V79.9316L128.341 80.3711V88H114.841V74.834L109.234 84.5371L103.573 74.834Z" fill="#053F5E"/>
<path d="M150.366 88L149.417 83.4648H142.069L141.138 88H131.136V79.1406L133.298 78.7012L138.484 61H153.003L158.206 78.7012L160.368 79.1406V88H150.366ZM143.581 77.4355H147.905L145.743 67.2578L143.581 77.4355Z" fill="#053F5E"/>
<path d="M185.329 61V70H182.376C182.177 69.7422 181.948 69.4785 181.691 69.209C181.433 68.9395 181.146 68.6992 180.829 68.4883C180.513 68.2656 180.167 68.0898 179.792 67.9609C179.417 67.8203 179.013 67.75 178.579 67.75V79.9316L180.829 80.3711V88H165.079V80.3711L167.329 79.9316V67.75C166.896 67.75 166.491 67.8203 166.116 67.9609C165.741 68.0898 165.396 68.2656 165.079 68.4883C164.763 68.6992 164.476 68.9395 164.218 69.209C163.96 69.4785 163.732 69.7422 163.532 70H160.579V61H185.329Z" fill="#053F5E"/>
<path d="M187.755 61H203.505V68.6641L201.255 69.1035V72.4258H210.255V69.1035L208.005 68.6641V61H223.755V68.6641L221.505 69.1035V79.9316L223.755 80.3711V88H208.005V80.3711L210.255 79.9316V76.3984H201.255V79.9316L203.505 80.3711V88H187.755V80.3711L190.005 79.9316V69.1035L187.755 68.6641V61Z" fill="#053F5E"/>
<path d="M89.9855 8H105.296C107.288 8 109.017 8.09375 110.482 8.28125C111.946 8.45703 113.194 8.71484 114.226 9.05469C115.257 9.39453 116.095 9.81055 116.739 10.3027C117.396 10.7949 117.905 11.3457 118.269 11.9551C118.644 12.5645 118.896 13.2324 119.025 13.959C119.165 14.6855 119.235 15.459 119.235 16.2793C119.235 17.123 119.153 17.9141 118.989 18.6523C118.837 19.3906 118.55 20.0703 118.128 20.6914C117.706 21.3008 117.12 21.8516 116.37 22.3438C115.632 22.8359 114.677 23.252 113.505 23.5918C112.345 23.9199 110.939 24.1777 109.286 24.3652C107.646 24.541 105.712 24.6289 103.485 24.6289V26.9316L105.735 27.3711V35H89.9855V27.3711L92.2355 26.9316V16.0684L89.9855 15.6289V8ZM103.485 19.7949C104.165 19.7949 104.78 19.7598 105.331 19.6895C105.894 19.6191 106.368 19.4727 106.755 19.25C107.153 19.0156 107.458 18.6816 107.669 18.248C107.88 17.8145 107.985 17.2285 107.985 16.4902C107.985 15.7754 107.88 15.207 107.669 14.7852C107.458 14.3516 107.153 14.0234 106.755 13.8008C106.368 13.5781 105.894 13.4316 105.331 13.3613C104.78 13.291 104.165 13.2559 103.485 13.2559V19.7949Z" fill="#E2E2E2"/>
<path d="M135.021 28.25C135.583 28.25 136.11 28.1855 136.603 28.0566C137.095 27.916 137.552 27.7402 137.974 27.5293C138.396 27.3184 138.776 27.0781 139.116 26.8086C139.468 26.5391 139.773 26.2695 140.03 26H142.966V35H121.521V27.3711L123.771 26.9316V16.0684L121.521 15.6289V8H137.271V15.6289L135.021 16.0684V28.25Z" fill="#E2E2E2"/>
<path d="M163.796 35L162.847 30.4648H155.499L154.568 35H144.566V26.1406L146.728 25.7012L151.913 8H166.433L171.636 25.7012L173.798 26.1406V35H163.796ZM157.011 24.4355H161.335L159.173 14.2578L157.011 24.4355Z" fill="#E2E2E2"/>
<path d="M198.759 8V17H195.806C195.607 16.7422 195.378 16.4785 195.12 16.209C194.862 15.9395 194.575 15.6992 194.259 15.4883C193.943 15.2656 193.597 15.0898 193.222 14.9609C192.847 14.8203 192.443 14.75 192.009 14.75V26.9316L194.259 27.3711V35H178.509V27.3711L180.759 26.9316V14.75C180.325 14.75 179.921 14.8203 179.546 14.9609C179.171 15.0898 178.825 15.2656 178.509 15.4883C178.193 15.6992 177.905 15.9395 177.648 16.209C177.39 16.4785 177.161 16.7422 176.962 17H174.009V8H198.759Z" fill="#E2E2E2"/>
<path d="M214.685 28.25C215.482 28.25 216.232 28.1855 216.935 28.0566C217.638 27.916 218.282 27.7402 218.868 27.5293C219.466 27.3184 220.005 27.0781 220.485 26.8086C220.966 26.5391 221.388 26.2695 221.751 26H224.687V35H201.185V27.3711L203.435 26.9316V16.1035L201.185 15.6641V8H224.687V17H221.857C221.482 16.7422 221.048 16.4785 220.556 16.209C220.064 15.9395 219.513 15.6992 218.903 15.4883C218.306 15.2656 217.655 15.0898 216.952 14.9609C216.249 14.8203 215.493 14.75 214.685 14.75V19.5488L219.958 18.4062V24.6289L214.685 23.4863V28.25Z" fill="#E2E2E2"/>
<path d="M103.573 72.834V86H90.0909V78.3711L92.3409 77.9316V67.0684L90.0909 66.6289V59H103.573L109.234 69.3711L114.841 59H128.341V66.6289L126.091 67.0684V77.9316L128.341 78.3711V86H114.841V72.834L109.234 82.5371L103.573 72.834Z" fill="#E2E2E2"/>
<path d="M150.366 86L149.417 81.4648H142.069L141.138 86H131.136V77.1406L133.298 76.7012L138.484 59H153.003L158.206 76.7012L160.368 77.1406V86H150.366ZM143.581 75.4355H147.905L145.743 65.2578L143.581 75.4355Z" fill="#E2E2E2"/>
<path d="M185.329 59V68H182.376C182.177 67.7422 181.948 67.4785 181.691 67.209C181.433 66.9395 181.146 66.6992 180.829 66.4883C180.513 66.2656 180.167 66.0898 179.792 65.9609C179.417 65.8203 179.013 65.75 178.579 65.75V77.9316L180.829 78.3711V86H165.079V78.3711L167.329 77.9316V65.75C166.896 65.75 166.491 65.8203 166.116 65.9609C165.741 66.0898 165.396 66.2656 165.079 66.4883C164.763 66.6992 164.476 66.9395 164.218 67.209C163.96 67.4785 163.732 67.7422 163.532 68H160.579V59H185.329Z" fill="#E2E2E2"/>
<path d="M187.755 59H203.505V66.6641L201.255 67.1035V70.4258H210.255V67.1035L208.005 66.6641V59H223.755V66.6641L221.505 67.1035V77.9316L223.755 78.3711V86H208.005V78.3711L210.255 77.9316V74.3984H201.255V77.9316L203.505 78.3711V86H187.755V78.3711L190.005 77.9316V67.1035L187.755 66.6641V59Z" fill="#E2E2E2"/>
<rect y="44.0649" width="313" height="6.76757" fill="#011D2D"/>
<rect x="54.1405" y="0.921631" width="21.9946" height="93.9" fill="#011D2D"/>
<rect x="34.6838" y="0.921631" width="13.5351" height="93.9" fill="#011D2D"/>
<rect x="22.8405" y="17.8405" width="6.76757" height="60.0622" fill="#011D2D"/>
<rect x="259.705" y="94.8216" width="21.9946" height="93.9" transform="rotate(-180 259.705 94.8216)" fill="#011D2D"/>
<rect x="279.162" y="94.8216" width="13.5351" height="93.9" transform="rotate(-180 279.162 94.8216)" fill="#011D2D"/>
<rect x="291.005" y="77.9027" width="6.76757" height="60.0622" transform="rotate(-180 291.005 77.9027)" fill="#011D2D"/>
</svg>
