<svg width="313" height="105" viewBox="0 0 313 105" fill="none" xmlns="http://www.w3.org/2000/svg">
<path d="M89.9855 13H105.296C107.288 13 109.017 13.0937 110.482 13.2812C111.946 13.457 113.194 13.7148 114.226 14.0547C115.257 14.3945 116.095 14.8105 116.739 15.3027C117.396 15.7949 117.905 16.3457 118.269 16.9551C118.644 17.5645 118.896 18.2324 119.025 18.959C119.165 19.6855 119.235 20.459 119.235 21.2793C119.235 22.123 119.153 22.9141 118.989 23.6523C118.837 24.3906 118.55 25.0703 118.128 25.6914C117.706 26.3008 117.12 26.8516 116.37 27.3438C115.632 27.8359 114.677 28.252 113.505 28.5918C112.345 28.9199 110.939 29.1777 109.286 29.3652C107.646 29.541 105.712 29.6289 103.485 29.6289V31.9316L105.735 32.3711V40H89.9855V32.3711L92.2355 31.9316V21.0684L89.9855 20.6289V13ZM103.485 24.7949C104.165 24.7949 104.78 24.7598 105.331 24.6895C105.894 24.6191 106.368 24.4727 106.755 24.25C107.153 24.0156 107.458 23.6816 107.669 23.248C107.88 22.8145 107.985 22.2285 107.985 21.4902C107.985 20.7754 107.88 20.207 107.669 19.7852C107.458 19.3516 107.153 19.0234 106.755 18.8008C106.368 18.5781 105.894 18.4316 105.331 18.3613C104.78 18.291 104.165 18.2559 103.485 18.2559V24.7949ZM135.021 33.25C135.583 33.25 136.11 33.1855 136.603 33.0566C137.095 32.916 137.552 32.7402 137.974 32.5293C138.396 32.3184 138.776 32.0781 139.116 31.8086C139.468 31.5391 139.773 31.2695 140.03 31H142.966V40H121.521V32.3711L123.771 31.9316V21.0684L121.521 20.6289V13H137.271V20.6289L135.021 21.0684V33.25ZM163.796 40L162.847 35.4648H155.499L154.568 40H144.566V31.1406L146.728 30.7012L151.913 13H166.433L171.636 30.7012L173.798 31.1406V40H163.796ZM157.011 29.4355H161.335L159.173 19.2578L157.011 29.4355ZM198.759 13V22H195.806C195.607 21.7422 195.378 21.4785 195.12 21.209C194.862 20.9395 194.575 20.6992 194.259 20.4883C193.943 20.2656 193.597 20.0898 193.222 19.9609C192.847 19.8203 192.443 19.75 192.009 19.75V31.9316L194.259 32.3711V40H178.509V32.3711L180.759 31.9316V19.75C180.325 19.75 179.921 19.8203 179.546 19.9609C179.171 20.0898 178.825 20.2656 178.509 20.4883C178.193 20.6992 177.905 20.9395 177.648 21.209C177.39 21.4785 177.161 21.7422 176.962 22H174.009V13H198.759ZM214.685 33.25C215.482 33.25 216.232 33.1855 216.935 33.0566C217.638 32.916 218.282 32.7402 218.868 32.5293C219.466 32.3184 220.005 32.0781 220.485 31.8086C220.966 31.5391 221.388 31.2695 221.751 31H224.687V40H201.185V32.3711L203.435 31.9316V21.1035L201.185 20.6641V13H224.687V22H221.857C221.482 21.7422 221.048 21.4785 220.556 21.209C220.064 20.9395 219.513 20.6992 218.903 20.4883C218.306 20.2656 217.655 20.0898 216.952 19.9609C216.249 19.8203 215.493 19.75 214.685 19.75V24.5488L219.958 23.4062V29.6289L214.685 28.4863V33.25ZM103.573 77.834V91H90.0909V83.3711L92.3409 82.9316V72.0684L90.0909 71.6289V64H103.573L109.234 74.3711L114.841 64H128.341V71.6289L126.091 72.0684V82.9316L128.341 83.3711V91H114.841V77.834L109.234 87.5371L103.573 77.834ZM150.366 91L149.417 86.4648H142.069L141.138 91H131.136V82.1406L133.298 81.7012L138.484 64H153.003L158.206 81.7012L160.368 82.1406V91H150.366ZM143.581 80.4355H147.905L145.743 70.2578L143.581 80.4355ZM185.329 64V73H182.376C182.177 72.7422 181.948 72.4785 181.691 72.209C181.433 71.9395 181.146 71.6992 180.829 71.4883C180.513 71.2656 180.167 71.0898 179.792 70.9609C179.417 70.8203 179.013 70.75 178.579 70.75V82.9316L180.829 83.3711V91H165.079V83.3711L167.329 82.9316V70.75C166.896 70.75 166.491 70.8203 166.116 70.9609C165.741 71.0898 165.396 71.2656 165.079 71.4883C164.763 71.6992 164.476 71.9395 164.218 72.209C163.96 72.4785 163.732 72.7422 163.532 73H160.579V64H185.329ZM187.755 64H203.505V71.6641L201.255 72.1035V75.4258H210.255V72.1035L208.005 71.6641V64H223.755V71.6641L221.505 72.1035V82.9316L223.755 83.3711V91H208.005V83.3711L210.255 82.9316V79.3984H201.255V82.9316L203.505 83.3711V91H187.755V83.3711L190.005 82.9316V72.1035L187.755 71.6641V64Z" fill="#E2E2E2"/>
<rect y="49.0649" width="313" height="6.76757" fill="#011D2D"/>
<rect x="54.1405" y="5.92163" width="21.9946" height="93.9" fill="#011D2D"/>
<rect x="34.6838" y="5.92163" width="13.5351" height="93.9" fill="#011D2D"/>
<rect x="22.8405" y="22.8405" width="6.76757" height="60.0622" fill="#011D2D"/>
<rect x="259.705" y="99.8216" width="21.9946" height="93.9" transform="rotate(-180 259.705 99.8216)" fill="#011D2D"/>
<rect x="279.162" y="99.8216" width="13.5351" height="93.9" transform="rotate(-180 279.162 99.8216)" fill="#011D2D"/>
<rect x="291.005" y="82.9027" width="6.76757" height="60.0622" transform="rotate(-180 291.005 82.9027)" fill="#011D2D"/>
</svg>
